<svg width="38" height="37" viewBox="0 0 38 37" fill="none" xmlns="http://www.w3.org/2000/svg">
<rect width="9.41514" height="9.41514" transform="matrix(1 0 0 -1 0.0582886 36.4067)" fill="black"/>
<rect width="9.41514" height="13.8089" transform="matrix(1 0 0 -1 0.0582886 26.9916)" fill="#1B2638"/>
<rect width="9.3965" height="9.3965" transform="matrix(1 0 0 -1 9.47223 17.6117)" fill="#1B2638"/>
<rect width="9.3965" height="9.3965" transform="matrix(1 0 0 -1 18.8684 17.6117)" fill="black"/>
<rect width="9.3965" height="9.3965" transform="matrix(1 0 0 -1 9.47223 27.0105)" fill="black"/>
<rect width="9.41514" height="8.15979" transform="matrix(1 0 0 -1 28.2444 8.15979)" fill="black"/>
<rect width="9.41514" height="8.15979" transform="matrix(1 0 0 -1 18.8279 8.15979)" fill="#1B2638"/>
<rect width="9.41514" height="8.15979" transform="matrix(1 0 0 -1 9.41144 8.15979)" fill="#263651"/>
<rect width="9.41514" height="13.1812" transform="matrix(1 0 0 -1 0 13.182)" fill="#263651"/>
</svg>
