<svg width="36" height="72" viewBox="0 0 36 72" fill="none" xmlns="http://www.w3.org/2000/svg">
<rect y="11.5557" width="7.11111" height="47.1111" fill="black"/>
<rect x="7.11072" y="64.8888" width="10.6667" height="7.11111" fill="black"/>
<rect x="17.7778" y="57.7781" width="7.11111" height="7.11111" fill="black"/>
<rect x="24.8885" y="47.111" width="4.44444" height="10.6667" fill="black"/>
<rect x="29.3336" y="24.889" width="6.22222" height="22.2222" fill="black"/>
<rect x="24.8885" y="11.5557" width="4.44444" height="13.3333" fill="black"/>
<rect x="17.7778" y="7.11121" width="7.11111" height="4.44444" fill="black"/>
<rect x="7.11072" width="10.6667" height="7.11111" fill="black"/>
<rect x="7.11072" y="7.11121" width="4.44444" height="4.44444" fill="black"/>
<rect x="11.5557" y="7.11121" width="6.22222" height="4.44444" fill="#7E5140"/>
<rect x="17.7778" y="11.5557" width="7.11111" height="13.3333" fill="#7E5140"/>
<rect x="24.8885" y="24.889" width="4.44444" height="22.2222" fill="#7E5140"/>
<rect x="17.7778" y="47.111" width="7.11111" height="7.11111" fill="#7E5140"/>
<rect x="17.7778" y="54.2222" width="7.11111" height="3.55556" fill="#733D38"/>
<rect x="17.7778" y="24.889" width="7.11111" height="22.2222" fill="#171424"/>
<rect x="11.5557" y="11.5557" width="6.22222" height="47.1111" fill="#171424"/>
<rect x="7.11072" y="11.5557" width="4.44444" height="47.1111" fill="white"/>
<rect x="7.11072" y="58.6666" width="10.6667" height="6.22222" fill="#7E5140"/>
</svg>
