<svg width="37" height="37" viewBox="0 0 37 37" fill="none" xmlns="http://www.w3.org/2000/svg">
<rect width="9.41514" height="8.15979" transform="matrix(1 0 0 -1 0 36.405)" fill="black"/>
<rect width="17.5749" height="8.15979" transform="matrix(1 0 0 -1 9.41647 36.405)" fill="#1B2638"/>
<rect width="10.0428" height="8.15979" transform="matrix(1 0 0 -1 26.3631 36.405)" fill="#3C5278"/>
<rect width="18.2026" height="9.41514" transform="matrix(1 0 0 -1 18.2025 28.2443)" fill="#1B2638"/>
<rect width="9.3965" height="9.3965" transform="matrix(1 0 0 -1 9.08479 28.181)" fill="black"/>
<rect width="9.41514" height="9.41514" transform="matrix(1 0 0 -1 26.991 18.8291)" fill="#1B2638"/>
<rect width="8.78747" height="9.41514" transform="matrix(1 0 0 -1 27.3025 9.45948)" fill="black"/>
<rect width="8.78747" height="9.41514" transform="matrix(1 0 0 -1 18.481 18.8709)" fill="black"/>
</svg>
