<svg width="38" height="36" viewBox="0 0 38 36" fill="none" xmlns="http://www.w3.org/2000/svg">
<rect width="9.41514" height="9.41514" transform="matrix(1 0 0 -1 28.1887 35.7791)" fill="black"/>
<rect width="9.41514" height="13.8089" transform="matrix(1 0 0 -1 28.1887 26.3639)" fill="#1B2638"/>
<rect width="9.3965" height="9.3965" transform="matrix(1 0 0 -1 18.7924 16.984)" fill="#1B2638"/>
<rect width="9.3965" height="9.3965" transform="matrix(1 0 0 -1 18.7924 26.3828)" fill="black"/>
<rect width="9.3965" height="9.3965" transform="matrix(1 0 0 -1 9.39622 16.984)" fill="black"/>
<rect width="9.41514" height="7.53211" transform="matrix(1 0 0 -1 0 7.5321)" fill="black"/>
<rect width="9.41514" height="7.53211" transform="matrix(1 0 0 -1 9.41647 7.5321)" fill="#1B2638"/>
<rect width="9.41514" height="7.53211" transform="matrix(1 0 0 -1 18.8304 7.5321)" fill="#263651"/>
<rect width="8.15979" height="12.5535" transform="matrix(1 0 0 -1 28.2418 12.5543)" fill="#263651"/>
</svg>
