<svg width="36" height="35" viewBox="0 0 36 35" fill="none" xmlns="http://www.w3.org/2000/svg">
<rect width="8.88839" height="7.70327" transform="matrix(1 0 0 -1 0.000732422 34.3508)" fill="#7B4127"/>
<rect width="17.7416" height="7.76194" transform="matrix(1 0 0 -1 8.88873 34.3101)" fill="#372A1A"/>
<rect width="17.7768" height="8.88839" transform="matrix(1 0 0 -1 0.000732422 26.6008)" fill="#372A1A"/>
<rect width="8.88839" height="8.88839" transform="matrix(1 0 0 -1 8.88873 17.6963)" fill="black"/>
<rect width="8.88839" height="8.88839" transform="matrix(1 0 0 -1 0.000732422 17.7598)" fill="#372A1A"/>
<rect width="8.87079" height="8.87079" transform="matrix(1 0 0 -1 0.000732422 8.87134)" fill="black"/>
<rect width="8.87079" height="8.87079" transform="matrix(1 0 0 -1 17.7781 26.5486)" fill="black"/>
<rect width="8.88839" height="7.70327" transform="matrix(1 0 0 -1 26.6304 34.0632)" fill="black"/>
</svg>
