<svg width="36" height="35" viewBox="0 0 36 35" fill="none" xmlns="http://www.w3.org/2000/svg">
<rect width="8.88839" height="8.88839" transform="matrix(1 0 0 -1 0.0535278 34.3689)" fill="black"/>
<rect width="8.88839" height="13.0363" transform="matrix(1 0 0 -1 0.0535278 25.4805)" fill="#372A1A"/>
<rect width="8.87079" height="8.87079" transform="matrix(1 0 0 -1 8.94153 16.6277)" fill="#372A1A"/>
<rect width="8.87079" height="8.87079" transform="matrix(1 0 0 -1 17.813 16.6277)" fill="black"/>
<rect width="8.87079" height="8.87079" transform="matrix(1 0 0 -1 8.94153 25.4978)" fill="black"/>
<rect width="8.88839" height="7.70327" transform="matrix(1 0 0 -1 26.6653 7.70386)" fill="black"/>
<rect width="8.88839" height="7.70327" transform="matrix(1 0 0 -1 17.776 7.70386)" fill="#372A1A"/>
<rect width="8.88839" height="7.70327" transform="matrix(1 0 0 -1 8.888 7.70386)" fill="#3E3529"/>
<rect width="8.88839" height="12.4437" transform="matrix(1 0 0 -1 0 12.4438)" fill="#3E3529"/>
</svg>
