<svg width="36" height="34" viewBox="0 0 36 34" fill="none" xmlns="http://www.w3.org/2000/svg">
<rect width="8.88839" height="8.88839" transform="matrix(1 0 0 -1 26.6118 33.7761)" fill="black"/>
<rect width="8.88839" height="13.0363" transform="matrix(1 0 0 -1 26.6118 24.8877)" fill="#372A1A"/>
<rect width="8.87079" height="8.87079" transform="matrix(1 0 0 -1 17.7403 16.0349)" fill="#372A1A"/>
<rect width="8.87079" height="8.87079" transform="matrix(1 0 0 -1 17.7403 24.905)" fill="black"/>
<rect width="8.87079" height="8.87079" transform="matrix(1 0 0 -1 8.87289 16.0349)" fill="black"/>
<rect width="8.88839" height="7.11071" transform="matrix(1 0 0 -1 0 7.11108)" fill="black"/>
<rect width="8.88839" height="7.11071" transform="matrix(1 0 0 -1 8.888 7.11108)" fill="#372A1A"/>
<rect width="8.88839" height="7.11071" transform="matrix(1 0 0 -1 17.7773 7.11108)" fill="#3E3529"/>
<rect width="7.70327" height="11.8512" transform="matrix(1 0 0 -1 26.6653 11.8511)" fill="#3E3529"/>
</svg>
