<svg width="38" height="37" viewBox="0 0 38 37" fill="none" xmlns="http://www.w3.org/2000/svg">
<rect width="9.41514" height="8.15979" transform="matrix(1 0 0 -1 0 36.3869)" fill="#3C5278"/>
<rect width="18.793" height="8.22194" transform="matrix(1 0 0 -1 9.41394 36.3438)" fill="#1B2638"/>
<rect width="18.8303" height="9.41514" transform="matrix(1 0 0 -1 0 28.1782)" fill="#1B2638"/>
<rect width="9.41514" height="9.41514" transform="matrix(1 0 0 -1 9.41394 18.7452)" fill="black"/>
<rect width="9.41514" height="9.41514" transform="matrix(1 0 0 -1 0 18.8136)" fill="#1B2638"/>
<rect width="9.3965" height="9.3965" transform="matrix(1 0 0 -1 0 9.39838)" fill="black"/>
<rect width="9.3965" height="9.3965" transform="matrix(1 0 0 -1 18.8253 28.1224)" fill="black"/>
<rect width="9.41514" height="8.15979" transform="matrix(1 0 0 -1 28.2039 36.0831)" fill="black"/>
</svg>
