<svg width="35" height="35" viewBox="0 0 35 35" fill="none" xmlns="http://www.w3.org/2000/svg">
<rect width="8.88839" height="7.70327" transform="matrix(1 0 0 -1 0 34.3684)" fill="black"/>
<rect width="16.5917" height="7.70327" transform="matrix(1 0 0 -1 8.888 34.3687)" fill="#372A1A"/>
<rect width="9.48095" height="7.70327" transform="matrix(1 0 0 -1 24.8856 34.3687)" fill="#7B4127"/>
<rect width="17.1842" height="8.88839" transform="matrix(1 0 0 -1 17.1832 26.6648)" fill="#372A1A"/>
<rect width="8.87079" height="8.87079" transform="matrix(1 0 0 -1 8.57513 26.606)" fill="black"/>
<rect width="8.88839" height="8.88839" transform="matrix(1 0 0 -1 25.4811 17.7766)" fill="#372A1A"/>
<rect width="8.29583" height="8.88839" transform="matrix(1 0 0 -1 25.7775 8.9302)" fill="black"/>
<rect width="8.29583" height="8.88839" transform="matrix(1 0 0 -1 17.4453 17.8184)" fill="black"/>
</svg>
