<svg width="74" height="70" viewBox="0 0 74 70" fill="none" xmlns="http://www.w3.org/2000/svg">
<rect x="43.7167" width="29.854" height="5.33107" fill="black"/>
<rect x="38.3849" y="5.3313" width="5.33107" height="7.4635" fill="black"/>
<rect x="29.8552" y="12.7946" width="8.52971" height="8.52971" fill="black"/>
<rect x="22.3935" y="21.3243" width="7.4635" height="5.33107" fill="black"/>
<rect y="21.3243" width="17.0594" height="5.33107" fill="black"/>
<rect y="26.6552" width="8.52971" height="8.52971" fill="black"/>
<rect x="8.52972" y="35.1849" width="8.52971" height="12.7946" fill="black"/>
<rect x="17.0594" y="26.6552" width="5.33107" height="11.7284" fill="black"/>
<rect x="22.3935" y="35.1849" width="7.4635" height="7.4635" fill="black"/>
<rect x="29.8552" y="42.6482" width="8.52971" height="5.33107" fill="black"/>
<rect x="38.3849" y="47.9795" width="5.33107" height="8.52971" fill="black"/>
<rect x="43.7167" y="56.5087" width="7.4635" height="12.7946" fill="black"/>
<rect x="38.3849" y="61.8396" width="5.33107" height="7.4635" fill="black"/>
<rect x="17.0594" y="42.6482" width="5.33107" height="5.33107" fill="black"/>
<rect x="22.3935" y="47.9795" width="7.4635" height="13.8608" fill="black"/>
<rect x="29.8552" y="56.5087" width="8.52971" height="5.33107" fill="black"/>
<rect y="47.9795" width="8.52971" height="13.8608" fill="black"/>
<rect x="8.52972" y="61.8396" width="13.8608" height="7.4635" fill="black"/>
<rect x="43.7167" y="42.6482" width="7.4635" height="5.33107" fill="black"/>
<rect x="51.1784" y="35.1849" width="8.52971" height="7.4635" fill="black"/>
<rect x="59.7082" y="26.6552" width="5.33107" height="8.52971" fill="black"/>
<rect x="65.0422" y="5.3313" width="8.52971" height="21.3243" fill="black"/>
<rect x="29.8552" y="21.3243" width="8.52971" height="5.33107" fill="#A3B6CF"/>
<rect x="38.3849" y="12.7946" width="5.33107" height="8.52971" fill="#A3B6CF"/>
<rect x="43.7167" y="5.3313" width="7.4635" height="7.4635" fill="#A3B6CF"/>
<rect x="22.3935" y="26.6552" width="7.4635" height="8.52971" fill="#A3B6CF"/>
<rect x="8.52972" y="47.9795" width="13.8608" height="13.8608" fill="#A0664C"/>
<rect x="15.9935" y="55.4434" width="6.39729" height="6.39729" fill="#733C2D"/>
<rect x="29.8552" y="47.9795" width="8.52971" height="8.52971" fill="#733C2D"/>
<rect x="38.3849" y="56.5087" width="5.33107" height="5.33107" fill="#733C2D"/>
<rect x="29.8552" y="26.6552" width="8.52971" height="8.52971" fill="#899CB3"/>
<rect x="29.8552" y="35.1849" width="8.52971" height="7.4635" fill="#BDCBDC"/>
<rect x="38.3849" y="26.6552" width="5.33107" height="8.52971" fill="#BDCBDC"/>
<rect x="38.3849" y="35.1849" width="5.33107" height="7.4635" fill="#899CB3"/>
<rect x="43.7167" y="26.6552" width="7.4635" height="8.52971" fill="#899CB3"/>
<rect x="51.1784" y="21.3243" width="8.52971" height="5.33107" fill="#899CB3"/>
<rect x="59.7082" y="12.7946" width="5.33107" height="8.52971" fill="#899CB3"/>
<rect x="59.7082" y="21.3243" width="5.33107" height="5.33107" fill="#384565"/>
<rect x="51.1784" y="26.6552" width="8.52971" height="8.52971" fill="#384565"/>
<rect x="43.7167" y="35.1849" width="7.4635" height="7.4635" fill="#384565"/>
<rect x="38.3849" y="42.6482" width="5.33107" height="5.33107" fill="#384565"/>
<rect x="43.7167" y="21.3243" width="7.4635" height="5.33107" fill="#BDCBDC"/>
<rect x="51.1784" y="12.7946" width="8.52971" height="8.52971" fill="#BDCBDC"/>
<rect x="59.7082" y="5.3313" width="5.33107" height="7.4635" fill="#BDCBDC"/>
<rect x="38.3849" y="21.3243" width="5.33107" height="5.33107" fill="#899CB3"/>
<rect x="43.7167" y="12.7946" width="7.4635" height="8.52971" fill="#899CB3"/>
<rect x="51.1784" y="5.3313" width="8.52971" height="7.4635" fill="#899CB3"/>
</svg>
