<svg width="78" height="70" viewBox="0 0 78 70" fill="none" xmlns="http://www.w3.org/2000/svg">
<rect x="35.1831" y="5.33081" width="5.33077" height="15.9923" fill="black"/>
<rect x="40.5139" y="5.33081" width="7.46308" height="7.46308" fill="#7E5140"/>
<rect x="35.1831" y="21.3231" width="5.33077" height="5.33077" fill="#7E5140"/>
<rect x="26.6538" y="26.6539" width="8.52923" height="8.52923" fill="#7E5140"/>
<rect x="35.1831" y="26.6539" width="5.33077" height="8.52923" fill="#733D38"/>
<rect x="26.6538" y="35.1831" width="8.52923" height="12.7938" fill="#733D38"/>
<rect x="21.3231" y="47.9769" width="6.39692" height="8.52923" fill="#733D38"/>
<rect x="12.7939" y="56.5062" width="8.52923" height="5.33077" fill="#733D38"/>
<rect x="40.5139" y="12.7938" width="7.46308" height="8.52923" fill="#733D38"/>
<rect x="47.9769" y="5.33081" width="8.52923" height="7.46308" fill="#733D38"/>
<rect x="56.5061" y="12.7938" width="5.33077" height="8.52923" fill="#7EEFFF"/>
<rect x="47.9769" y="21.3231" width="8.52923" height="5.33077" fill="#7EEFFF"/>
<rect x="61.8369" y="12.7938" width="7.46308" height="22.3892" fill="#00D6F4"/>
<rect x="56.5061" y="21.3231" width="5.33077" height="13.86" fill="#00D6F4"/>
<rect x="47.9769" y="26.6539" width="8.52923" height="8.52923" fill="#00D6F4"/>
<rect x="21.3231" y="42.6461" width="5.33077" height="5.33077" fill="#7E5140"/>
<rect x="12.7939" y="47.9769" width="8.52923" height="8.52923" fill="#7E5140"/>
<rect x="5.33078" y="56.5062" width="7.46308" height="5.33077" fill="#7E5140"/>
<rect x="40.5139" width="15.9923" height="5.33077" fill="black"/>
<rect x="56.5061" y="5.33081" width="12.7938" height="7.46308" fill="black"/>
<rect x="69.3" y="12.7938" width="8.52923" height="22.3892" fill="black"/>
<rect x="47.9769" y="35.1831" width="21.3231" height="7.46308" fill="black"/>
<rect x="40.5139" y="21.3231" width="7.46308" height="13.86" fill="black"/>
<rect x="47.9769" y="12.7938" width="8.52923" height="8.52923" fill="black"/>
<rect x="35.1831" y="35.1831" width="5.33077" height="12.7938" fill="black"/>
<rect x="27.72" y="47.9769" width="7.46308" height="8.52923" fill="black"/>
<rect x="21.3231" y="56.5062" width="6.39692" height="5.33077" fill="black"/>
<rect x="5.33078" y="61.8369" width="15.9923" height="7.46308" fill="black"/>
<rect x="26.6538" y="21.3231" width="8.52923" height="5.33077" fill="black"/>
<rect x="21.3231" y="26.6539" width="5.33077" height="15.9923" fill="black"/>
<rect x="12.7939" y="42.6461" width="8.52923" height="5.33077" fill="black"/>
<rect x="5.33078" y="47.9769" width="7.46308" height="8.52923" fill="black"/>
<rect y="56.5062" width="5.33077" height="5.33077" fill="black"/>
</svg>
